<svg xmlns="http://www.w3.org/2000/svg" width="736" height="414" fill="none"><path fill="#FE0000" fill-rule="evenodd" d="m121.393 391.732-12.665 22.12h3.772c3.098-6.194 7.149-11.927 10.52-17.994 3.512-6.322 7.889-13.866 9.726-16.762l3.339-5.267 23.035.269 23.035.268 10.912 18.993c6.002 10.447 10.928 20.08 10.933 20.493h6.196l-8.848-15.224c-4.866-8.372-9.031-15.682-9.255-16.244-.224-.561-1.485-2.735-2.801-4.83l-2.394-3.81 4.183-7.186c2.302-3.953 6.884-11.91 10.183-17.683 3.299-5.773 6.63-11.517 7.402-12.763 1.403-2.265 1.423-2.267 24.916-1.999l23.513.267 11.476 19.576 11.476 19.576-6.628 11.413a4592.004 4592.004 0 0 0-11.636 20.16l-5.008 8.747h4.06l3.059-5.248c1.682-2.886 6.557-11.423 10.832-18.97l7.774-13.722 25.165-.023 25.164-.023 2.399-4.249c1.319-2.336 6.99-12.209 12.602-21.938l10.202-17.691-11.932-20.592c-6.563-11.326-12.475-21.247-13.139-22.046-.995-1.199-5.507-1.452-25.833-1.447l-24.628.007-1.889 3.242a6061.944 6061.944 0 0 0-9.082 15.738c-3.955 6.873-8.536 14.745-10.18 17.494l-2.988 4.998-23.43.267-23.431.267-1.246-2.766c-.685-1.521-6.355-11.538-12.601-22.259l-11.357-19.493H135.82l-10.496 17.994c-5.772 9.896-11.378 19.703-12.456 21.794l-1.962 3.8 2.857 5.197c1.571 2.858 6.78 11.998 11.576 20.312l8.719 15.118-12.665 22.119Zm-1.643-71.552c2.679-4.836 7.769-13.838 11.311-20.006l6.439-11.214 23.5-.014 23.5-.013 10.5 18.185c5.775 10.002 10.854 19.153 11.287 20.337.769 2.101-.121 3.807-19.918 38.158l-1.869 3.242-23.5-.02-23.5-.02-6.391-11.219a8601.662 8601.662 0 0 1-11.31-19.923l-4.92-8.703 4.871-8.79Zm155.146-12.29c2.39-4.124 5.435-9.41 6.767-11.746l2.421-4.248h46.682l11.631 20.028 11.632 20.029-10.176 17.708c-5.597 9.74-10.954 18.832-11.903 20.207l-1.727 2.499-23.307-.5-23.306-.5-11.167-19.493-11.167-19.493 2.357-4.498c2.535-4.84 4.487-8.304 11.263-19.993Z" clip-rule="evenodd"/><path fill="#FE0000" d="m278.081 397.375-9.381 16.477 151.3-.646c0-.356 3.589-6.99 7.975-14.744 4.387-7.755 8.099-14.354 8.25-14.666.151-.311-5.35-10.308-12.225-22.214l-12.5-21.649-25.5.002-25.5.002-11.515 20.213-11.515 20.214-25.004.267-25.004.266-9.381 16.478Z"/><path fill="#FE0000" fill-rule="evenodd" d="M669.932 388.111C680.138 405.744 684 413.249 684 413.852l4.5-.055-10-17.598c-5.5-9.679-10.135-17.945-10.301-18.368-.165-.424 2.422-5.355 5.75-10.958 3.328-5.602 6.051-10.353 6.051-10.558 0-.322 6.614-11.603 10.663-18.186 1.367-2.222 1.646-2.249 23.36-2.249H736v-2.999h-45.083l-2.929-4.748c-1.612-2.612-6.929-11.721-11.817-20.243l-8.887-15.495h-51.508l-8.02 13.995c-4.411 7.698-9.956 17.369-12.322 21.493l-4.303 7.497 2.766 4.998c1.522 2.749 7.159 12.534 12.527 21.743l9.761 16.744h48.394l5.353 9.246Zm-59.296-79.721c3.7-6.598 7.208-12.327 7.796-12.731.587-.404 10.968-.733 23.068-.733 12.1 0 22.46.329 23.023.733.896.644 9.482 15.041 15.939 26.726a286.707 286.707 0 0 0 4.52 7.828l.13.215c.758 1.255 1.28 2.118 1.444 3.044.363 2.044-1.013 4.395-5.424 11.933l-.346.59c-1.807 3.09-6.408 11.074-10.224 17.744l-6.939 12.127h-45.309l-9.304-16.245a9192.93 9192.93 0 0 1-11.572-20.242l-2.267-3.999 4.369-7.497c2.402-4.124 7.396-12.896 11.096-19.493Z" clip-rule="evenodd"/><path fill="#FE0000" d="m714.25 327.861 21.75.022v-86.969l-21.75.035-21.75.035-12 21.197c-6.6 11.658-12 21.739-12 22.403 0 .664 5.4 10.667 12 22.23l12 21.024 21.75.023ZM362.29 41.735c14.535 24.748 17.737 30.726 17.202 32.12-.963 2.508-22.711 39.547-24.281 41.354-1.372 1.578-3.929 1.748-26.116 1.737l-24.595-.012-3.5-6.212a1051.453 1051.453 0 0 0-6.134-10.735c-1.449-2.486-5.557-9.65-9.13-15.92l-6.495-11.397 3.275-5.596a955.534 955.534 0 0 0 6.129-10.653 3783.01 3783.01 0 0 1 9.271-16.244l6.416-11.187h50.472l7.486 12.745Z"/><path fill="#FE0000" fill-rule="evenodd" d="M600.156 16.683C595.12 7.99 591 .68 591 .439h-4.5l1.877 2.816a1228.52 1228.52 0 0 1 3.869 6.741c1.096 1.925 4.413 7.616 7.373 12.647 2.96 5.031 5.381 9.92 5.381 10.864 0 .944-5.061 10.435-11.247 21.092l-11.247 19.375H536.16l-8.759-15.245c-4.817-8.385-10.061-17.604-11.652-20.487L512.856 33l1.913-2.754c1.052-1.515 5.411-8.94 9.687-16.5L532 .44l-4-.06c0 .209-3.228 5.945-7.173 12.746-3.945 6.8-7.883 13.6-8.75 15.109l-1.577 2.742-23.5.006-23.5.005-5.243-9.246a3503.289 3503.289 0 0 0-8.841-15.493L445.818 0h-4.102l8.801 15.245c4.841 8.384 8.991 15.596 9.221 16.026.369.688-6.652 13.459-18.532 33.706l-3.813 6.497-23.489.268-23.49.267-9.099-15.761c-5.005-8.67-10.111-17.572-11.348-19.782l-2.248-4.02 9.243-16.223L386.206 0h-4.136l-1.184 2.25c-.652 1.237-4.768 8.482-9.147 16.1-6.908 12.018-7.823 14.16-6.908 16.167.58 1.271 5.793 10.457 11.585 20.412l10.53 18.1-11.973 20.902C368.388 105.427 363 115.361 363 116.006c0 .644 2.851 5.958 6.336 11.808 3.485 5.85 8.911 15.209 12.058 20.798 3.146 5.589 6.463 10.446 7.37 10.794.906.348 12.341.56 25.41.471l23.763-.161 2.157-3.636c1.187-1.999 6.432-11.057 11.656-20.129 5.225-9.071 10.006-16.837 10.625-17.255.619-.419 11.25-.733 23.625-.699 12.375.035 23.245.04 24.155.012 1.542-.048 3.237-2.455 8.835-12.547 1.22-2.199 5.384-9.508 9.252-16.244l7.033-12.246h49.522l12.268-21.104c6.748-11.608 12.263-21.617 12.257-22.242-.006-.626-4.131-8.25-9.166-16.943ZM449.592 58.271c5.35-9.233 10.791-18.481 12.092-20.553l2.365-3.767 22.68.268 22.681.269 11.295 19.493C526.917 64.7 532 74.019 532 74.686c0 .668-3.198 6.74-7.108 13.495-3.909 6.756-8.484 14.757-10.167 17.781-.372.669-.707 1.288-1.018 1.861l-.003.006-.007.012-.014.028-.001.001c-1.307 2.416-2.172 4.014-3.477 5.07-2.549 2.062-6.776 2.053-19.263 2.026h-.006c-1.549-.003-3.226-.007-5.043-.007h-22.797l-3.685-6.248c-2.026-3.436-4.573-7.822-5.66-9.746-1.086-1.925-4.655-8.091-7.93-13.704l-5.956-10.204 9.727-16.786ZM367 115.874c0-.86 3.181-6.585 17.033-30.654l5.322-9.247h23.854c20.726 0 23.933.205 24.455 1.565.33.861 3.753 7.046 7.605 13.745 3.853 6.699 8.554 15.008 10.448 18.464l3.442 6.284-11.329 19.921-11.33 19.923-23.5.033-23.5.033-6.101-10.745a2371.77 2371.77 0 0 0-11.25-19.57c-2.832-4.854-5.149-9.243-5.149-9.752ZM23.205 73.742 0 74.01v4.962l23.25.003 23.25.004 4.947 8.743a1229.73 1229.73 0 0 0 10.276 17.74c2.931 4.949 5.569 9.921 5.862 11.05.366 1.407-2.372 7.073-8.695 17.994-5.075 8.767-10.135 17.628-11.245 19.689l-2.016 3.749H0v2.998h42.864l1.944 2.749c1.069 1.512 2.787 4.328 3.818 6.256 1.031 1.929 6.125 10.813 11.321 19.743l9.446 16.236 25.054-.012 25.053-.013 4.417-7.734c2.43-4.254 8.158-14.108 12.73-21.896l8.313-14.16-7.756-13.33c-4.266-7.332-9.963-17.265-12.659-22.076l-4.903-8.747-23.571-.008c-23.43-.008-23.577-.021-24.646-2.249-.592-1.233-5.933-10.662-11.869-20.952L48.764 76.038l2.269-3.78C60.528 56.434 72 35.575 72 34.134c0-.96-.398-2.173-.885-2.696-.801-.86-14.138-23.76-17-29.19L52.93 0h-4.195l9.632 16.813c5.298 9.248 9.609 17.458 9.58 18.244-.029.786-4.887 9.752-10.795 19.923L46.409 73.474l-23.204.268Zm34.371 71.4c5.329-9.179 10.566-18.15 11.638-19.937l1.949-3.249h46.699l7.819 13.665c4.3 7.515 9.452 16.571 11.448 20.123l3.628 6.461-5.036 8.615a3686.273 3686.273 0 0 0-11.495 19.862l-6.459 11.246H71.198l-2.224-3.749c-1.222-2.061-6.467-11.084-11.655-20.049l-9.433-16.3 9.69-16.688Z" clip-rule="evenodd"/><path fill="#FE0000" d="M0 37.005V74.01l23.205-.268 23.204-.268L57.152 54.98C63.06 44.81 67.918 35.843 67.947 35.057c.029-.786-4.282-8.996-9.58-18.244L48.735 0H0v37.005ZM0 118.458v39.486H45.629l2.016-3.749c1.11-2.061 6.17-10.922 11.245-19.689 6.323-10.921 9.061-16.587 8.695-17.994-.293-1.129-2.931-6.101-5.862-11.05a1229.73 1229.73 0 0 1-10.276-17.74L46.5 78.979l-23.25-.004L0 78.972v39.486ZM690.663 338.129C686.614 344.712 680 355.993 680 356.315c0 .205-2.723 4.956-6.051 10.558-3.328 5.603-5.915 10.534-5.75 10.958.166.423 4.801 8.689 10.301 18.368l10 17.598 23.75.027 23.75.028V335.88h-21.977c-21.714 0-21.993.027-23.36 2.249ZM524.456 13.745c-4.276 7.56-8.635 14.985-9.687 16.5L512.856 33l2.893 5.243c1.591 2.883 6.835 12.102 11.652 20.487l8.759 15.245h46.346l11.247-19.376C599.939 43.943 605 34.452 605 33.508c0-.944-2.421-5.833-5.381-10.864-2.96-5.031-6.277-10.722-7.373-12.647a1228.52 1228.52 0 0 0-3.869-6.741L586.5.439H532l-7.544 13.306ZM461.684 37.718c-1.301 2.072-6.742 11.32-12.092 20.553l-9.727 16.786 5.956 10.204c3.275 5.613 6.844 11.78 7.93 13.704 1.087 1.924 3.634 6.31 5.66 9.746l3.685 6.248h22.797c1.817 0 3.494.004 5.043.007h.006c12.487.027 16.714.036 19.263-2.026 1.305-1.056 2.17-2.654 3.477-5.07l.001-.001.014-.028.007-.012.003-.006c.311-.573.646-1.192 1.018-1.861 1.683-3.024 6.258-11.025 10.167-17.78 3.91-6.755 7.108-12.828 7.108-13.496 0-.667-5.083-9.984-11.295-20.705L509.41 34.488l-22.681-.27-22.68-.267-2.365 3.767ZM132.746 379.096c-1.837 2.896-6.214 10.44-9.726 16.762-3.371 6.067-7.422 11.8-10.52 17.994H204c-.005-.413-4.931-10.046-10.933-20.493l-10.912-18.993-23.035-.268-23.035-.269-3.339 5.267ZM131.061 300.174c-3.542 6.168-8.632 15.17-11.311 20.006l-4.871 8.79 4.92 8.703a8601.662 8601.662 0 0 0 11.31 19.923l6.391 11.219 23.5.02 23.5.02 1.869-3.242c19.797-34.351 20.687-36.057 19.918-38.158-.433-1.184-5.512-10.335-11.287-20.337l-10.5-18.185-23.5.013-23.5.014-6.439 11.214ZM69.214 125.205c-1.072 1.787-6.309 10.758-11.638 19.937l-9.69 16.688 9.433 16.3c5.188 8.965 10.433 17.988 11.655 20.049l2.224 3.749h46.569l6.459-11.246a3686.273 3686.273 0 0 1 11.495-19.862l5.036-8.615-3.628-6.461a4065.593 4065.593 0 0 0-11.448-20.123l-7.819-13.665H71.163l-1.949 3.249ZM376.962 16.223l-9.243 16.222 2.248 4.021c1.237 2.21 6.343 11.112 11.348 19.782l9.099 15.761 23.49-.267 23.489-.268 3.813-6.497c11.88-20.247 18.901-33.018 18.532-33.706-.23-.43-4.38-7.642-9.221-16.026L441.716 0h-55.51l-9.244 16.223ZM384.033 85.22C370.181 109.288 367 115.013 367 115.873c0 .509 2.317 4.898 5.149 9.752a2371.77 2371.77 0 0 1 11.25 19.57l6.101 10.745 23.5-.033 23.5-.033 11.33-19.923 11.329-19.921-3.442-6.284c-1.894-3.456-6.595-11.765-10.448-18.464-3.852-6.7-7.275-12.884-7.605-13.745-.522-1.36-3.729-1.565-24.455-1.565h-23.854l-5.322 9.246ZM208.666 336.112c-.772 1.246-4.103 6.99-7.402 12.763a3117.776 3117.776 0 0 1-10.183 17.683l-4.183 7.186 2.394 3.81c1.316 2.095 2.577 4.269 2.801 4.83.224.562 4.389 7.872 9.255 16.244l8.848 15.224h46.579l5.008-8.747c2.754-4.81 7.99-13.883 11.636-20.16l6.628-11.413-11.476-19.576-11.476-19.576-23.513-.267c-23.493-.268-23.513-.266-24.916 1.999ZM281.663 296.144a2499.073 2499.073 0 0 1-6.767 11.746c-6.776 11.689-8.728 15.153-11.263 19.993l-2.357 4.498 11.167 19.493 11.167 19.493 23.306.5 23.307.5 1.727-2.499c.949-1.375 6.306-10.467 11.903-20.207l10.176-17.708-11.632-20.029-11.631-20.028h-46.682l-2.421 4.248ZM618.432 295.659c-.588.404-4.096 6.133-7.796 12.731-3.7 6.597-8.694 15.369-11.096 19.493l-4.369 7.497 2.267 3.999a9192.93 9192.93 0 0 0 11.572 20.242l9.304 16.245h45.309l6.939-12.127c3.816-6.67 8.417-14.654 10.224-17.744l.346-.59c4.411-7.538 5.787-9.889 5.424-11.933-.164-.926-.686-1.789-1.444-3.044l-.13-.215a286.707 286.707 0 0 1-4.52-7.828c-6.457-11.685-15.043-26.082-15.939-26.726-.563-.404-10.923-.733-23.023-.733s-22.481.329-23.068.733Z"/></svg>