<svg xmlns="http://www.w3.org/2000/svg" width="736" height="414" fill="none"><path fill="#FE0000" d="M600.156 16.683C595.12 7.99 591 .68 591 .439h-59l-4-.06c0 .209-3.228 5.945-7.173 12.746-3.945 6.8-7.883 13.6-8.75 15.109l-1.577 2.742-47 .01-3.762.285c.369.688-6.652 13.459-18.532 33.706l-3.813 6.497.271 6.064c.33.861 3.753 7.046 7.605 13.745 3.853 6.699 8.554 15.008 10.448 18.464l3.442 6.284 3.216 2.665c.619-.419 11.25-.733 23.625-.699 12.375.035 23.245.04 24.155.012 1.542-.048 3.237-2.455 8.835-12.547 1.22-2.199 5.384-9.508 9.252-16.244l7.033-12.246h49.522l12.268-21.104c6.748-11.608 12.263-21.617 12.257-22.242-.006-.626-4.131-8.25-9.166-16.943ZM71.115 31.439c-.801-.86-14.138-23.76-17-29.19L52.93 0H0v160.942h42.864l5.022.888 9.69-16.688c5.329-9.179 10.566-18.15 11.638-19.937l1.949-3.249.262-6.255c-.592-1.233-5.933-10.662-11.869-20.952L48.764 76.038l2.269-3.78C60.528 56.434 72 35.575 72 34.134c0-.96-.398-2.173-.885-2.696ZM125.339 354.495l8.719 15.118-25.33 44.239H210.196l-8.848-15.224c-4.866-8.372-9.031-15.682-9.255-16.244-.224-.561-1.485-2.735-2.801-4.83l-2.394-3.81 4.183-7.186c2.302-3.953 6.884-11.91 10.183-17.683 3.299-5.773 6.63-11.517 7.402-12.763l2.834-6.196-1.246-2.766c-.685-1.521-6.355-11.538-12.601-22.259l-11.357-19.493H135.82l-10.496 17.994c-5.772 9.896-11.378 19.703-12.456 21.794l-1.962 3.8 2.857 5.197c1.571 2.858 6.78 11.998 11.576 20.312ZM669.932 388.111C680.138 405.744 684 413.249 684 413.852l4.5-.055 47.5.055V332.881h-45.083l-4.361.591c.363 2.044-1.013 4.395-5.424 11.933l-.346.59c-1.807 3.09-6.408 11.074-10.224 17.744l-6.939 12.127.956 2.999 5.353 9.246Z"/></svg>
