<svg xmlns="http://www.w3.org/2000/svg" width="736" height="414" fill="none"><path fill="#FE0000" d="m616.185 378.865-9.761-16.744c-5.368-9.209-11.005-18.994-12.527-21.743l-2.766-4.998 4.303-7.497c2.366-4.124 7.911-13.795 12.322-21.493l8.02-13.995h51.508l8.887 15.495c4.888 8.522 10.205 17.631 11.817 20.243l2.929 4.748-.254 5.248C686.614 344.712 680 355.993 680 356.315c0 .205-2.723 4.956-6.051 10.558-3.328 5.603-5.915 10.534-5.75 10.958l-3.62 1.034h-48.394ZM211.5 329.916l-1.246-2.766-3.967.305c.769 2.101-.121 3.807-19.918 38.158l-1.869 3.242-2.345 5.511 10.912 18.993c6.002 10.447 10.928 20.08 10.933 20.493h56.835l3.059-5.248c1.682-2.886 6.557-11.423 10.832-18.97l7.774-13.722 50.329-.046 2.399-4.249c1.319-2.336 6.99-12.209 12.602-21.938l10.202-17.691-11.932-20.592c-6.563-11.326-12.475-21.247-13.139-22.046-.995-1.199-5.507-1.452-25.833-1.447l-24.628.007-1.889 3.242a6061.944 6061.944 0 0 0-9.082 15.738c-3.955 6.873-8.536 14.745-10.18 17.494l-2.988 4.998-46.861.534ZM451.75 135.951c5.225-9.071 10.006-16.837 10.625-17.255l.721-3.737-3.685-6.248c-2.026-3.436-4.573-7.822-5.66-9.746-1.086-1.925-4.655-8.091-7.93-13.704l-5.956-10.204 9.727-16.786c5.35-9.233 10.791-18.481 12.092-20.553l2.365-3.767-.549-2.964-5.243-9.246a3503.289 3503.289 0 0 0-8.841-15.493L445.818 0H382.07l-1.184 2.25c-.652 1.237-4.768 8.482-9.147 16.1-6.908 12.018-7.823 14.16-6.908 16.167.58 1.271 5.793 10.457 11.585 20.412l10.53 18.1-11.973 20.902C368.388 105.427 363 115.361 363 116.006c0 .644 2.851 5.958 6.336 11.808 3.485 5.85 8.911 15.209 12.058 20.798 3.146 5.589 6.463 10.446 7.37 10.794.906.348 12.341.56 25.41.471l23.763-.161 2.157-3.636c1.187-1.999 6.432-11.057 11.656-20.129ZM71.425 115.701c1.069 2.228 1.216 2.241 24.646 2.249l23.571.008 4.903 8.747c2.696 4.811 8.393 14.744 12.659 22.076l7.756 13.33-8.313 14.16c-4.572 7.788-10.3 17.642-12.73 21.896l-4.417 7.734-50.107.025-9.446-16.236c-5.196-8.93-10.29-17.814-11.321-19.743-1.031-1.928-2.749-4.744-3.818-6.256l-1.944-2.749 2.765-2.998 2.016-3.749c1.11-2.061 6.17-10.922 11.245-19.689 6.323-10.921 9.061-16.587 8.695-17.994l3.84-.811Z"/></svg>
