<svg xmlns="http://www.w3.org/2000/svg" width="60" height="13" fill="none"><path fill="#DC002F" d="M4.884 9.068c-.088-.16-.2-.34-.336-.54-.128-.2-.264-.4-.408-.6v4.2H2.424V8.156c-.208.464-.432.904-.672 1.32-.24.416-.488.78-.744 1.092a5.687 5.687 0 0 0-.372-.876 13.36 13.36 0 0 0-.456-.828A8.45 8.45 0 0 0 1.2 7.496c.328-.544.612-1.08.852-1.608H.48V4.232h1.944v-1.2c-.264.048-.528.092-.792.132-.256.04-.512.076-.768.108-.032-.192-.1-.42-.204-.684a4.883 4.883 0 0 0-.288-.66 23.016 23.016 0 0 0 3.096-.696c.48-.152.9-.308 1.26-.468l1.2 1.32a15.16 15.16 0 0 1-1.788.576v1.572h1.644v1.656H4.14v.048c.112.096.252.232.42.408.176.176.352.36.528.552.184.192.348.368.492.528.152.152.26.264.324.336l-1.02 1.308Zm5.064 3.072a9.212 9.212 0 0 0-.144-1.056c-.848.128-1.688.256-2.52.384-.832.128-1.588.236-2.268.324l-.408-1.848c.16-.016.336-.032.528-.048l.588-.048c.152-.624.3-1.3.444-2.028.144-.728.276-1.476.396-2.244.128-.776.236-1.548.324-2.316.096-.776.172-1.524.228-2.244l1.992.312a56.45 56.45 0 0 1-.42 2.904c-.168.984-.348 1.94-.54 2.868-.192.92-.392 1.776-.6 2.568l.936-.096.96-.096c-.104-.408-.224-.82-.36-1.236-.128-.416-.26-.808-.396-1.176l1.68-.468a24.885 24.885 0 0 1 1.152 3.444c.144.568.24 1.08.288 1.536l-1.86.564ZM18.66 11.696c-.552 0-1.02-.088-1.404-.264a2.532 2.532 0 0 1-.9-.672 2.955 2.955 0 0 1-.492-.864 2.775 2.775 0 0 1-.144-.828c0-.264.056-.544.168-.84.12-.304.296-.588.528-.852.24-.272.548-.492.924-.66.376-.168.82-.252 1.332-.252.328 0 .644.024.948.072a15.467 15.467 0 0 0-.084-.912 20.396 20.396 0 0 0-.132-1.068c-.616.056-1.2.136-1.752.24-.544.104-.988.22-1.332.348l-.252-1.776c.28-.136.688-.252 1.224-.348a20.193 20.193 0 0 1 1.728-.228 21.477 21.477 0 0 0-.204-.672 8.303 8.303 0 0 0-.24-.672l1.872-.444a7 7 0 0 1 .228.768c.072.288.14.596.204.924h.204c.4 0 .768.012 1.104.036.336.024.612.064.828.12V4.64a4.38 4.38 0 0 0-.828-.132 9.907 9.907 0 0 0-1.008-.048h-.024c.064.496.116.976.156 1.44.048.464.08.88.096 1.248.456.24.872.532 1.248.876.384.344.74.712 1.068 1.104l-1.116 1.44a9.03 9.03 0 0 0-.66-.744 6.58 6.58 0 0 0-.636-.564c-.296 1.624-1.18 2.436-2.652 2.436Zm-5.532-.18c-.168-.504-.288-1.1-.36-1.788a20.99 20.99 0 0 1-.108-2.16c0-.792.032-1.576.096-2.352.072-.776.16-1.484.264-2.124.112-.64.232-1.144.36-1.512l1.824.396c-.144.472-.268 1-.372 1.584a24.677 24.677 0 0 0-.228 1.824 25.027 25.027 0 0 0-.072 1.896c0 .712.032 1.392.096 2.04.072.648.18 1.22.324 1.716l-1.824.48Zm4.38-2.4c0 .104.032.224.096.36.072.128.184.24.336.336.152.088.352.132.6.132.28 0 .496-.08.648-.24.152-.168.26-.372.324-.612.072-.248.116-.492.132-.732a2.652 2.652 0 0 0-.552-.12 4.656 4.656 0 0 0-.432-.024c-.312 0-.584.088-.816.264-.224.168-.336.38-.336.636ZM31.308 5.66a9.307 9.307 0 0 0 1.656 2.892c.712.832 1.62 1.46 2.724 1.884-.144.128-.3.292-.468.492-.16.192-.316.392-.468.6a7.848 7.848 0 0 0-.36.564c-1.056-.488-1.932-1.124-2.628-1.908-.688-.792-1.264-1.72-1.728-2.784A8.803 8.803 0 0 1 28.5 9.992c-.672.808-1.6 1.508-2.784 2.1a4.71 4.71 0 0 0-.576-.78 4.71 4.71 0 0 0-.744-.708c.88-.4 1.6-.856 2.16-1.368.56-.52 1-1.084 1.32-1.692a7.991 7.991 0 0 0 .732-1.884h-3.972V3.848h4.26c.04-.528.06-1.052.06-1.572L28.98.74h1.92c-.008.496-.02 1.008-.036 1.536-.008.52-.036 1.044-.084 1.572h4.608V5.66h-4.08ZM44.148 4.508c-.064.92-.2 1.772-.408 2.556a5.912 5.912 0 0 1-1.02 2.088 9.16 9.16 0 0 0 2.088.816c.792.208 1.684.36 2.676.456-.12.128-.248.296-.384.504-.136.2-.264.404-.384.612-.12.208-.216.396-.288.564-2.144-.272-3.84-.82-5.088-1.644a8.534 8.534 0 0 1-1.644.864c-.624.256-1.344.48-2.16.672a3.097 3.097 0 0 0-.252-.528 5.404 5.404 0 0 0-.36-.552 4.158 4.158 0 0 0-.396-.468c.736-.16 1.38-.34 1.932-.54a8.497 8.497 0 0 0 1.452-.684A8.579 8.579 0 0 1 38.7 7.448a15.569 15.569 0 0 1-.924-2.256l1.668-.396c.192.656.432 1.256.72 1.8.288.536.64 1.016 1.056 1.44.344-.472.588-1 .732-1.584a9.944 9.944 0 0 0 .288-1.944h-5.604V2.804H42.3c.008-.296.012-.596.012-.9v-.96h1.932c0 .32-.004.636-.012.948 0 .304-.004.608-.012.912h3.168v1.704h-3.24ZM55.236 7.436a5.633 5.633 0 0 0 1.752 1.908c.744.496 1.684.848 2.82 1.056a4.868 4.868 0 0 0-.42.492c-.144.192-.28.392-.408.6a6.093 6.093 0 0 0-.312.564c-1.112-.28-2.036-.684-2.772-1.212a6.664 6.664 0 0 1-1.812-1.992c-.376.704-.932 1.348-1.668 1.932-.728.576-1.724 1.04-2.988 1.392a4.112 4.112 0 0 0-.288-.54c-.12-.2-.252-.4-.396-.6-.144-.2-.276-.36-.396-.48.832-.216 1.524-.484 2.076-.804.56-.32 1.012-.676 1.356-1.068.344-.4.608-.816.792-1.248H48.6v-1.8h4.392c.024-.304.036-.596.036-.876v-.756h-3.6v-1.8h3.6V.74h1.884v1.464h3.864v1.8h-3.864v.756c0 .144-.004.288-.012.432 0 .144-.004.292-.012.444h4.524v1.8h-4.176Z"/></svg>