<svg xmlns="http://www.w3.org/2000/svg" width="120" height="120" fill="none"><g fill="#DC002F" clip-path="url(#a)"><path d="M74.7.419c-1.288.48-1.705.524-2.658.226-1.386-.424-2.203-.284-3.781.65-.74.437-.773.451-2.302.38-1.753-.087-3.572.057-4.57.365-3.008.904-6.038 3.108-7.227 5.258-.822 1.482-.932 2.175-1.096 7.125-.115 3.08-.209 4.171-.4 4.653-.143.341-.258.75-.258.918 0 .169-.066.366-.131.438-.066.087-.307.525-.516.977-1.254 2.757-3.09 4.566-5.857 5.792-.872.366-1.13.424-2.433.424-3.009 0-4.411-.847-8.45-5.076-.373-.395-.855-.875-1.063-1.087-.723-.736-3.72-4.282-4.022-4.777a7.371 7.371 0 0 0-.482-.708c-.548-.635-1.677-3.83-1.677-4.748 0-.255-.066-.496-.132-.539-.131-.072-4.235 3.603-4.345 3.887-.066.125.63.78 5.458 5.143 1.189 1.088 3.688 3.378 5.54 5.09 1.852 1.708 3.671 3.363 4.022 3.69.356.313 1.945 1.78 3.54 3.238 1.594 1.472 3.057 2.785 3.266 2.954.191.154.356.394.356.539 0 .226-.258.255-3.49.284l-3.508.043v.568c0 .48.066.577.4.663 2.176.525 2.576.708 3.107 1.386.258.327.274 1.102.274 9.978v9.627l-.373.48c-.449.607-1.238.949-2.46 1.088l-.948.101v1.13l11.979.044c6.597.015 12.039-.014 12.105-.072.131-.116.432-3.815.498-6.09.033-1.045-.016-1.358-.192-1.444-.356-.169-1.145 0-1.238.27-.082.225-1.529 2.785-1.885 3.333-.515.818-1.48 1.81-2.011 2.035-1.145.51-5.732.708-7.36.313-.821-.197-1.238-.592-1.578-1.51-.224-.607-.257-1.328-.224-4.879l.05-4.157 1.944-.043c1.66-.029 2.044 0 2.674.255 1.288.496 2.27 1.838 2.642 3.575.115.591.531.875 1.129.75l.389-.086V49.62c0-2.684.032-3.252.224-3.252.132 0 .724.452 1.32 1.02.615.553 1.48 1.342 1.919 1.751.915.833 2.4 2.19 6.762 6.206 1.688 1.554 4.005 3.676 5.167 4.734 3.365 3.041 4.088 3.72 4.088 3.83 0 .212-.614.27-2.992.27h-2.493l.05.591c.048.592.065.606.87.832.45.126 1.113.395 1.48.607.772.423 1.82 1.525 2.11 2.217.115.27.306.722.432 1.006.132.298.34.794.466 1.102.132.312.356.817.482 1.13.132.313.34.804.466 1.087.4.963.773 1.795.981 2.233.115.24.258.635.307.875.066.255.192.496.274.54.082.057.142.197.142.326 0 .126.099.41.225.621.132.212.274.568.34.803.066.236.175.467.257.51.082.058.143.226.143.395 0 .183.098.438.224.592.116.154.258.437.307.635.05.197.242.707.433 1.13.192.424.4.934.483 1.13.082.198.29.708.482 1.131.191.424.416 1.006.515 1.27.082.27.224.554.307.636a.516.516 0 0 1 .142.35c0 .116.115.395.241.621.132.212.241.467.241.54 0 .086.099.34.225.576.132.255.323.693.416.992.307.846.39.875 2.318.832 1.447-.043 1.737-.087 1.82-.284.049-.125.175-.438.306-.693.132-.24.225-.539.225-.65a.42.42 0 0 1 .143-.312c.082-.043.208-.284.274-.539.049-.24.191-.635.306-.875.115-.227.324-.679.45-.991.126-.313.356-.833.498-1.174.143-.328.373-.847.5-1.16.13-.313.355-.818.481-1.13.126-.313.34-.804.466-1.102.515-1.217.806-1.722.981-1.722.099 0 1.595 1.284 3.299 2.853 1.72 1.582 3.896 3.56 4.827 4.411.932.847 1.946 1.78 2.253 2.064a943.88 943.88 0 0 0 3.863 3.517c1.819 1.65 3.737 3.42 4.263 3.916.531.496 1.063.904 1.189.904.225 0 .208-.606-.082-2.501-.066-.525-.033-.92.159-1.415.597-1.51.482-3.15-.307-4.608-.499-.948-.565-2.334-.115-3.08.356-.62.356-2.501-.033-3.29-.417-.89-.34-1.554.323-2.43.324-.423.647-.803.724-.846.241-.126.158-1.02-.116-1.583-.158-.299-.323-1.174-.4-2.007-.241-2.852-.58-5.017-.931-5.864-.449-1.13-.417-1.684.142-2.67.773-1.328.614-1.852-.964-3.334-.614-.568-.981-1.03-.997-1.256a36.173 36.173 0 0 1-.033-1.794l-.017-1.415-.657-.78c-1.096-1.255-1.189-1.495-1.189-3.093 0-1.568-.159-2.05-.932-2.828-.373-.366-.515-.679-.597-1.3-.099-.678-.208-.904-.707-1.342-.888-.794-1.014-1.173-.888-2.501l.099-1.145-.63-.635c-.839-.818-1.661-2.108-1.661-2.589 0-.62-1.611-1.37-2.992-1.37-1.27 0-1.61-.14-2.833-1.19-.948-.817-1.337-1.043-1.835-1.115-2.658-.38-2.735-.424-3.266-1.496-.466-.977-.647-1.059-1.918-.977-.597.043-1.173.058-1.271.014-.225-.072-.29-.466-.083-.466.066 0 .515-.299.981-.664.674-.51.998-.664 1.42-.664.306 0 .597.072.657.14.258.327 1.32.75 2.576 1.029.723.154 1.402.327 1.48.365.355.198 1.994.496 2.706.496.855 0 3.107-.351 3.524-.553.158-.072.4-.169.531-.212.132-.058.564-.24.948-.438.806-.394 1.206-.438 1.786-.14.225.116.724.198 1.096.212.598 0 .773-.072 1.206-.495.29-.27.789-.75 1.129-1.059l.613-.567h1.354c1.205 0 1.386-.044 1.836-.366.274-.197.498-.452.498-.553 0-.101.115-.255.241-.351.132-.101.241-.284.241-.424 0-.125.242-.452.532-.707.515-.466 1.145-.707 2.608-1.044 1.688-.394 2.061-.567 2.592-1.217.291-.351.532-.722.532-.818.016-.1-.225-.394-.515-.635-.307-.255-.614-.722-.74-1.087-.389-1.174-.674-1.525-1.721-2.107-1.013-.568-1.594-1.174-1.77-1.853-.224-.919-.646-1.414-1.676-2.006-1.063-.62-1.611-1.27-1.836-2.189-.143-.524-.614-.933-1.463-1.231-.855-.313-1.129-.554-1.935-1.64-.964-1.329-1.013-1.343-2.641-1.3l-1.386.029-.658-.635c-.646-.606-.723-.635-1.545-.635-.964 0-1.096-.072-1.962-1.03-.323-.365-.756-.75-.948-.832-.24-.125-1.222-.183-3.025-.183-2.334 0-2.717-.029-2.991-.255-.176-.125-.39-.24-.466-.24-.29 0-1.37-1.073-1.496-1.497-.208-.663.225-1.568 1.014-2.049.838-.539 1.222-1.145 1.222-1.963 0-.722.372-1.342 1.161-1.963l.515-.394-.4-.198c-.208-.1-.904-.226-1.545-.269-.904-.072-1.304-.183-1.852-.51-1.66-.962-2.45-1.116-3.622-.693-.724.27-2.252.27-2.784 0-.614-.298-1.43-.255-2.674.154-1.611.554-2.22.568-3.348.125a7.026 7.026 0 0 0-2.011-.437c-.91-.053-1.217.004-2.186.356ZM51.055 40.148c2.559 2.304 3.929 3.574 4.203 3.916.224.298.208.365-.116.919-.372.65-.915 1.13-1.687 1.496-.373.183-.965.226-2.658.24h-2.175l-.05-4.099c-.016-2.246 0-4.185.05-4.296.115-.24.224-.154 2.433 1.824Zm35.223 32.185c5.557 5.061 5.425 4.931 5.31 5.369-.066.212-.159.452-.225.539-.082.072-.208.365-.29.635-.099.27-.323.847-.515 1.27a32.246 32.246 0 0 0-.707 1.737c-.208.524-.45 1.03-.548 1.116-.274.24-.63.043-.723-.41a5.814 5.814 0 0 0-.34-.961c-.132-.313-.499-1.174-.806-1.91-.306-.736-.772-1.881-1.063-2.545-.274-.664-.564-1.357-.646-1.554-.082-.197-.29-.707-.482-1.13a21.648 21.648 0 0 1-.5-1.204 5.899 5.899 0 0 0-.29-.707c-.082-.154-.257-.567-.416-.919a9.41 9.41 0 0 0-.499-1.03c-.208-.365-.191-.663.05-.663.049.005 1.255 1.063 2.69 2.367Z"/><path d="M5.19 35.582c-.066.043-.115.327-.115.62 0 .482.05.554.45.636 1.43.283 2.882 1.27 3.556 2.444.323.538.34.818.34 8.972l.016 8.41-.417.765c-.224.423-.646.933-.931 1.116-.515.35-1.754.765-2.526.846-.357.044-.4.126-.45.65l-.05.592 5.525-.03 5.523-.043V59.46l-1.047-.299c-1.819-.524-2.4-.904-2.931-1.924-.34-.606-.356-.861-.4-6.432-.033-3.195-.066-6.543-.099-7.462-.033-1.414 0-1.655.225-1.655.24 0 .4.154 1.512 1.554.34.423.674.832.74.919.131.125 1.288 1.525 4.537 5.484.79.948 2.16 2.613 3.058 3.72.904 1.101 2.334 2.828 3.172 3.858.839 1.02 1.66 1.991 1.82 2.16.142.168.274.341.274.38 0 .058.208.298.466.553.482.452.498.452 1.994.452 1.239 0 1.545-.043 1.628-.226.049-.125.098-4.82.098-10.43 0-8.934.033-10.305.258-10.983.482-1.43 1.271-2.021 3.041-2.305l.965-.154v-1.13l-5.409-.044c-5.217-.028-5.425-.028-5.507.24-.033.14-.033.439 0 .636.066.284.208.38.674.452.723.116 2.416.833 2.707 1.16.548.577.838 1.481.997 3.026.208 1.977.241 11.137.033 11.137-.29 0-.658-.168-.658-.313 0-.072-.24-.408-.515-.736-.29-.341-.646-.765-.772-.933a12.67 12.67 0 0 0-.4-.481c-.099-.087-.417-.481-.724-.861-.306-.395-1.095-1.357-1.753-2.16-.674-.794-1.978-2.377-2.915-3.508-.937-1.13-2.203-2.67-2.817-3.42-.63-.75-1.255-1.54-1.403-1.737a4.924 4.924 0 0 0-.482-.568c-.115-.115-.45-.524-.756-.904-.307-.395-.658-.794-.79-.89-.19-.125-1.43-.168-4.942-.168-2.592.019-4.75.062-4.8.115Zm39.443 28.693c-.066.043-.115.312-.115.567 0 .41.082.51.564.693.307.101.69.197.871.197.4 0 1.447.424 1.803.722.143.125.34.438.433.693.258.62.274 18.628.017 19.402-.225.722-1.063 1.174-2.417 1.314-.564.058-1.08.168-1.145.255-.192.24-.143.86.066 1.044.142.125 1.868.168 6.761.168h6.57l.193-.351c.306-.592-.033-1.02-.916-1.145-.964-.116-1.737-.452-2.159-.919-.306-.351-.323-.568-.356-4.58 0-2.685.05-4.253.143-4.34.416-.365.997.058 2.318 1.627 1.161 1.37 1.835 2.232 4.312 5.542.225.313.466.664.532.78.065.115.257.394.433.634.175.226.389.553.482.707.093.154.307.467.482.708.175.226.389.567.466.736.098.168.307.38.482.452.208.101 1.978.154 4.926.154h4.587l.175-.38c.29-.678-.016-.991-1.096-1.116-.888-.101-.98-.14-2.077-1.102-.964-.861-1.803-1.751-2.992-3.223a763.809 763.809 0 0 1-2.416-2.998c-.115-.14-.499-.62-.855-1.058-1.19-1.472-1.852-2.362-1.852-2.502 0-.086.531-.35 1.162-.62a16.214 16.214 0 0 0 1.978-.962c.855-.525 1.852-1.415 1.852-1.67 0-.072.082-.212.175-.298.806-.707 1.113-4.325.466-5.595-.915-1.824-3.123-3.027-6.406-3.479-1.238-.168-17.255-.226-17.447-.057Zm14.29 1.75c.357.116 1.047.569 1.612 1.045.871.765.997.933 1.173 1.708.356 1.597.142 4.026-.45 5.003-.997 1.64-2.899 2.545-5.359 2.545h-1.08l-.032-5.157c-.033-2.839-.017-5.23.016-5.316.082-.207 3.32-.082 4.12.173ZM2.648 83.385c-1.189.38-2.175.99-2.46 1.525-.274.495-.258.51.142 1.044.45.606 1.03.736 1.628.341.159-.115.466-.211.674-.211.4 0 .45-.226.115-.62-.241-.285-.241-.285-.548 0-.159.153-.531.38-.822.48-.482.169-.548.169-.805-.14-.274-.326-.274-.34.274-.793.63-.525 1.512-.934 2.707-1.232.706-.183.887-.183 1.254-.014.548.255.548.327-.065.875-.45.395-.466.453-.176.453.176 0 .482-.116.674-.255.417-.299.34-.794-.257-1.343-.466-.452-1.19-.48-2.335-.11Zm1.496 2.742c-.69.212-1.238.51-1.72.919-.647.553-.707.664-.69 1.246 0 .553.065.664.4.78 1.32.437 3.54-.342 4.493-1.555.498-.65.482-.803-.115-1.299-.592-.5-.981-.514-2.368-.091Zm2.351.62c.099.568-2.416 1.896-3.655 1.935-.723.014-.74 0-.707-.395.033-.438.274-.62 1.562-1.27 1.578-.78 2.69-.89 2.8-.27Zm.439 1.824a5.78 5.78 0 0 1-.806.496c-.175.072-.466.211-.647.298-1.189.678-1.66.904-2.01.962-.549.115-.45.496.29 1.16.707.649 1.43.707 2.575.197.965-.438 2.126-1.511 2.126-1.978 0-.437-.613-1.496-.87-1.496-.1.01-.385.164-.658.361Zm1.046.847c0 .678-2.416 2.174-3.523 2.174-.433 0-.499-.043-.499-.394 0-.327.175-.467 1.238-1.02.69-.351 1.37-.678 1.513-.736.142-.058.323-.154.389-.24.05-.087.274-.155.499-.155.3.005.383.077.383.37Zm.817 1.515c-.499.327-.63.467-.417.496.45.086 1.37-.38 1.37-.679 0-.384-.115-.356-.953.183Zm.531.929c-1.162.466-1.353.692-1.353 1.54 0 .663-.066.803-.499 1.173-.58.481-.806.51-1.173.14-.257-.241-.257-.299.083-.78.389-.577.175-.678-.483-.24l-.389.255.39.663c.224.395.498.693.723.737.416.1 1.238-.255 1.885-.765.372-.313.433-.481.433-1.088 0-.779.372-1.27 1.046-1.37.417-.058.532.605.16 1.101-.291.394-.226.423.322.115.532-.312.532-.918 0-1.4-.224-.197-.432-.35-.449-.35-.016.004-.323.13-.696.269Zm2.384 2.689c-.417.496-2.718 2.078-3.315 2.276-.5.154-.516.255-.099.678.307.327.647.313.647-.014 0-.198 3.397-2.502 3.671-2.502.29 0 .225-.255-.132-.568-.175-.154-.34-.284-.372-.284-.028 0-.208.188-.4.414Zm1.255.904c0 .198-.176.554-.4.78-.242.255-.373.524-.307.65.05.124-.258.817-.723 1.625-.483.847-.74 1.458-.647 1.497.274.154 1.512-.934 1.512-1.343.017-.197.324-.89.69-1.525.691-1.217.708-1.428.132-1.866-.225-.16-.257-.13-.257.182Zm1.353 1.723c-.05.197-.159.351-.241.351-.082 0-.142.115-.142.24.016.241.016.241.224 0 .115-.124.4-.24.647-.24.498 0 .531-.14.131-.467s-.504-.293-.619.116Zm.997.452c-.049.043-.098.226-.098.38 0 .197-.515.722-1.463 1.496-.806.664-1.562 1.256-1.688 1.314-.323.154-.274.423.099.635.356.197.646.115.646-.169 0-.086.29-.409.647-.721.58-.496.674-.525 1.046-.38.675.269.532.75-.432 1.496-.724.539-.822.678-.674.89.224.327.706.409.706.125 0-.351 2.916-2.771 3.348-2.771.324 0 .34-.029.176-.313-.4-.664-.948-.904-.948-.438-.017.27-.323.635-.915 1.073-.323.255-.373.255-.756.015-.324-.169-.4-.313-.324-.54.132-.35.647-.817 1.162-1.058.192-.086.356-.24.356-.341-.016-.212-.74-.804-.888-.693Zm-5.6.582c-.515.212-.548.342-.208.592.192.14.258.125.356-.087.05-.154.175-.312.258-.35.334-.213-.006-.343-.406-.155Zm95.462.28c-.948.62-1.173 1.159-.482 1.159.142 0 1.014.664 1.918 1.472 1.611 1.429 1.66 1.443 1.901 1.159.34-.394.324-.567-.049-.649-.307-.072-3.414-2.53-3.414-2.7 0-.043.175-.153.4-.24.564-.226 1.337.125 2.543 1.174.756.664.915.905.915 1.285 0 .62.274.62.4.014.241-1.116-1.819-3.012-3.299-3.055-.126 0-.499.168-.833.38Zm4.746.961c-.116.255.323.621.706.621.324 0 .242-.539-.098-.707-.417-.198-.493-.183-.608.086Zm-91.884.919c-.159.424-2.866 2.954-3.156 2.954-.258 0-.143.452.142.65.39.269.466.24.58-.125.116-.352 2.352-2.459 3.026-2.839l.449-.255-.373-.341c-.427-.409-.542-.424-.668-.044Zm84.365.395c-.306.284-.224.577.132.577.115 0 .871.592 1.677 1.328 1.013.904 1.479 1.429 1.479 1.655 0 .313.017.313.565-.154.63-.539.723-.765.241-.635-.241.072-.63-.212-1.803-1.27-.822-.751-1.513-1.458-1.545-1.569-.083-.283-.422-.24-.746.068Zm-83.176.837c-1.03.606-1.288 1.087-1.162 2.203.115.934-.192 1.357-.948 1.357-.416 0-.45-.043-.45-.553 0-.313.083-.606.16-.65a.278.278 0 0 0 .159-.226c0-.072-.209.058-.482.298-.258.241-.483.496-.483.568 0 .058.192.313.417.553.597.635 1.271.592 2.06-.086.581-.51.581-.539.565-1.612-.017-.933.032-1.13.323-1.385.433-.381.564-.366.805.043.16.24.16.409.033.606-.257.452-.016.496.417.101l.389-.366-.373-.38c-.433-.437-.805-.721-.915-.721-.05-.005-.29.106-.515.25Zm81.231.746c-.805.538-.822.591-.356.918.499.352 2.592 2.444 2.833 2.839.241.394.515.409.789.043.208-.312.142-.567-.175-.567-.291 0-.915-.635-.915-.919 0-.125.049-.212.131-.183l1.03.438c.74.327.981.365 1.255.24.373-.168.433-.423.099-.423-.132 0-.674-.197-1.206-.438-.871-.394-.997-.51-1.162-1.03-.208-.692-.871-1.356-1.337-1.342-.197 0-.635.197-.986.424Zm1.337.437c.417.409.614 1.03.34 1.174-.225.125-1.43-.962-1.43-1.27-.006-.327.701-.255 1.09.096Zm5.184.27c0 .539.389.495.449-.058.033-.269-.016-.38-.192-.38-.175 0-.257.14-.257.438Zm-84.837.664c0 .298-1.403 1.963-2.35 2.814l-.675.577.373.313c.39.313.45.284.855-.423.356-.606.772-.962 1.172-1.02.29-.029.373-.116.357-.366-.066-.409.372-.991.948-1.299.416-.211.416-.255.191-.539-.306-.38-.87-.408-.87-.057Zm75.593.524c-.324.423-.324.568.016 1.429.373.977 2.077 2.458 2.833 2.458.614 0 .806-.101 1.08-.553.449-.779-.307-2.261-1.644-3.238-.833-.591-1.88-.649-2.285-.096Zm1.77.525c1.013.817 1.72 1.78 1.737 2.376.016.438-.033.496-.4.539-.34.029-.598-.125-1.288-.779-.723-.708-1.754-2.136-1.754-2.473 0-.087.373-.212.773-.241.115-.005.532.25.932.578Zm-75.74.067c-.291.606-.932 1.174-1.321 1.174-.274 0-.324.057-.258.312.099.313-.69 1.444-1.112 1.583-.324.116-.274.481.082.65.466.211.657.168.657-.116 0-.312 2.094-2.8 2.609-3.108.208-.115.4-.24.45-.269.081-.072-.659-.592-.823-.606-.055 0-.186.168-.285.38Zm72.364.452c-.131.168.34.481.548.366.274-.154.175-.496-.142-.496-.181.005-.362.063-.406.13Zm-70.77.313c0 .24-2.094 2.939-2.51 3.223-.482.327-.482.395-.016.736.465.342.597.342.597-.014 0-.154.274-.606.597-1.006.548-.664.614-.707.806-.466.115.139.208.312.208.38 0 .086.142.029.323-.116.45-.351.4-.635-.082-.635-.225 0-.4-.072-.4-.154 0-.168.532-.875.997-1.313.274-.27.29-.27.598.072.175.183.323.423.34.524 0 .255.388.14.449-.125.033-.125-.324-.437-.822-.736-.92-.553-1.085-.611-1.085-.37Zm69.625.553c-.16.241.597 1.554.888 1.554.142 0 .772.452 1.402 1.006.647.553 1.222.962 1.321.918.192-.115-.482-1.481-.74-1.496-.098 0-.756-.481-1.463-1.058-.794-.659-1.342-1.011-1.408-.924Zm-1.693.847c-.274.24-.307.341-.143.51.099.115.241.197.307.197s.822.635 1.688 1.414c1.403 1.246 2.044 1.67 1.994 1.299-.032-.341-.931-1.539-1.254-1.669-.5-.226-1.946-1.482-1.946-1.708 0-.313-.307-.341-.646-.043Zm-65.083.847c-.482.495-.564.649-.482 1.058.066.38.016.524-.323.779-.34.255-.39.366-.241.568.142.197.098.342-.176.693-.416.51-.389.919.066.976.29.029.4-.154.838-1.342.29-.765.658-1.737.839-2.16.559-1.309.4-1.477-.52-.572Zm2.06.452a4.191 4.191 0 0 0-.13.606c-.067.394-.724 2.458-1.08 3.406-.274.736-.115.832.531.298.58-.466.723-.793.647-1.371a1.54 1.54 0 0 1 .175-.962c.142-.24.258-.592.258-.794 0-.211.131-.423.34-.524l.34-.154-.374-.342c-.4-.375-.608-.418-.706-.163Zm60.562-.087c-.224.212-.098.284.548.298.433.015.63-.028.581-.139-.066-.183-.953-.313-1.129-.159Zm-.871.438c-.274.087-.258.394.033.606.131.087.499.592.838 1.102.34.524.69 1.073.806 1.231.34.482.531.919.531 1.189 0 .255.033.255.565.043.613-.24.69-.38.323-.51-.132-.043-.45-.38-.707-.75-.372-.51-.433-.722-.323-.934.115-.168.274-.226.466-.168.29.086.29.058.065-.351-.24-.424-.548-.453-.548-.058 0 .269-.389.255-.674-.058-.131-.125-.372-.51-.531-.847-.28-.577-.422-.649-.844-.495Zm-57.805.779c.032.212.159.342.372.342.176.014.417.029.532.043a.24.24 0 0 1 .191.226c0 .255-1.736 3.435-1.945 3.546-.307.154-.115.327.756.693.981.409 1.403.409 1.48.014.05-.226 0-.255-.373-.168-.564.125-1.046-.015-1.046-.313 0-.341.657-1.458.915-1.539.115-.044.356.028.515.154.274.226.307.226.4.014.159-.394.115-.496-.307-.496-.466 0-.466-.028-.192-.721.241-.621.565-.977.855-.977.323 0 .274-.284-.05-.365-.158-.044-.657-.241-1.095-.424-.992-.423-1.074-.423-1.008-.029Zm56.325-.072-.531.197.34.328c.175.168.34.38.34.466 0 .087.115.226.24.327a.715.715 0 0 1 .242.496.467.467 0 0 1-.241.409c-.4.125-.274.409.142.313.323-.073.45 0 .74.437.192.299.389.751.433 1.006.082.394.142.467.432.394.192-.043.433-.086.549-.086.29 0 .24-.255-.132-.592-.4-.395-1.803-2.882-1.918-3.449-.088-.443-.088-.443-.636-.246Zm-62.057 0c-.192.169-.099.467.142.467.132 0 .241-.087.241-.197.006-.241-.219-.395-.383-.27Zm-2.8.64c.115.284.904.481 1.112.298.29-.255.017-.466-.597-.466-.384-.005-.548.053-.515.168Zm62.989.212c-.258.125-1.063.438-1.754.692-1.27.453-1.72.794-1.37.992.1.057.258-.015.34-.14.192-.298.756-.298.871.014.176.482 1.063 2.377 1.288 2.757.132.197.225.51.225.664 0 .342.142.366.723.125l.4-.154-.323-.313c-.482-.452-1.945-3.507-1.754-3.675.099-.087.258-.072.45.029.356.183.498.115.498-.27 0-.327.192-.327.516-.014.257.269 1.9 3.238 1.9 3.449 0 .212.647.14.74-.072.05-.101-.142-.51-.4-.89-.273-.394-.498-.861-.498-1.058 0-.197-.142-.467-.323-.606-.45-.352-.981-1.299-.872-1.554.132-.275-.043-.26-.657.024Zm-51.915.24c0 .255.499.409.707.226.132-.115.115-.197-.066-.283-.35-.198-.64-.169-.64.057Zm-9.644.125c-.208.226-.082.38.34.38.175 0 .29-.101.29-.283 0-.323-.356-.38-.63-.097Zm11.047.198c-.066.043-.115.24-.115.423 0 .197-.082.481-.175.635-.132.212-.132.366 0 .592.098.154.191.948.224 1.737.066 1.977.241 2.063.915.495.29-.664.307-.779.082-.962-.175-.154-.24-.539-.24-1.4 0-.89-.066-1.246-.258-1.4-.29-.245-.29-.245-.433-.12Zm57.838.779c0 .115-.115.298-.24.394-.275.198-.324.424-.1.424.083 0 .307-.125.516-.27.372-.269.372-.298.115-.524-.258-.221-.29-.221-.29-.024Zm-56.019.212c0 .481.241.62.532.327.389-.395.34-.568-.132-.568-.274 0-.4.072-.4.241Zm43.432.284c-.389.086-.372.197.115 1.029.274.467.373.818.307 1.044-.066.255-.016.38.225.496.175.086.356.327.4.538.307 1.386.515 1.626 1.173 1.4.208-.072.208-.115 0-.409-.483-.649-1.595-3.478-1.513-3.872.05-.255-.224-.342-.707-.226Zm-40.199 1.029c-.356.606-.433 1.131-.175 1.131.208 0 .05.664-.258 1.087-.159.212-.159.341-.049.409.175.086.132.678-.099 1.284-.098.255-.033.328.324.409.515.116.871-.115.597-.394-.115-.125-.132-.366-.033-.751.082-.312.208-1.284.258-2.16.131-1.737 0-1.963-.565-1.015Zm38.216-.351a3.08 3.08 0 0 1-.839.212c-.433 0-.449.101-.115.495.225.269.258.269.45.029.115-.125.29-.241.372-.241.307 0 1.546 2.925 1.546 3.633 0 .255.032.466.049.466.066 0 .931-.327 1.014-.38.032-.029-.033-.154-.176-.284-.131-.139-.372-.524-.531-.861-.258-.51-.274-.664-.099-.904.115-.154.175-.298.142-.298-.674-.299-1.161-1.189-.98-1.795.104-.327-.12-.356-.833-.072Zm-35.816.875c0 .381-.082.636-.548 1.963-.142.409-.257.833-.257.948 0 .125-.143.438-.323.722l-.34.481.482.101c.614.115.822.014.707-.366-.132-.394.822-3.42 1.189-3.815.258-.284.115-.409-.466-.409-.378-.009-.444.048-.444.375Zm32.84-.129a4.424 4.424 0 0 1-1.096.24c-.646.029-.805.154-.548.467.241.298.258.341.515 1.231.34 1.174.483 1.809.581 2.415.099.51.143.578.45.525.772-.154.805-.169.548-.438-.29-.284-.773-1.496-.773-1.924 0-.169-.115-.592-.258-.948-.306-.751-.208-1.256.176-.977.257.198.564.072.564-.226 0-.115.099-.197.225-.197.323 0 .74.553.74.962 0 .183.082.452.159.606.208.342.498 1.458.564 2.108.033.524.4.707.871.437.192-.115.192-.197-.033-.606a8.368 8.368 0 0 1-.498-1.256 15.104 15.104 0 0 0-.4-1.159c-.099-.226-.176-.649-.176-.962 0-.539-.016-.553-.515-.539-.29 0-.789.115-1.096.241Zm-30.215 1.274c-.016.525-.142 1.232-.274 1.569-.142.341-.257.779-.257.976a.971.971 0 0 1-.258.607c-.373.351-.175.51.838.692 1.03.183 1.354.126 1.354-.283 0-.299-.225-.38-.4-.14-.05.072-.307.14-.58.14-.34 0-.467-.073-.467-.255 0-.342.45-2.05.839-3.123.34-.962.274-1.145-.433-1.145-.296 0-.329.096-.362.962Zm2.85-.129c0 .591.224.875.389.495.191-.438.115-1.044-.143-1.044-.18 0-.246.154-.246.549Zm24.467-.424c0 .072.098.284.208.481l.208.351.175-.394c.099-.226.132-.438.082-.481-.142-.125-.674-.096-.674.043Zm-23.262.582c-.208.212-.29.525-.307 1.218-.016.89.017.947.515 1.313.417.327.515.495.515.948 0 .312-.082.635-.191.736-.258.226-.773.211-.773-.015-.016-.183-.548-.803-.707-.803-.05 0-.098.197-.098.423 0 .284.098.467.29.51.142.043.433.154.647.241.756.312 1.594-.539 1.627-1.67.016-.298-.175-.635-.647-1.116-.74-.803-.822-1.458-.175-1.655.307-.101.4-.058.548.226.208.409.373.453.515.14.132-.313-.466-.78-.997-.78-.263 0-.603.126-.762.284Zm19.848-.187c-.307.072-.373.327-.143.539.159.153.532.947 1.337 2.785.29.693.614 1.217.69 1.203.1-.029.176-.409.209-.832.033-.664-.017-.847-.356-1.203-.39-.409-.822-1.256-1.047-2.079-.11-.442-.236-.51-.69-.413Zm2 .678c.049.438.159.847.257.905.099.043.45.678.773 1.4.323.721.674 1.284.772 1.255.45-.125.258-1.924-.224-2.035-.274-.072-.658-.803-.948-1.809-.066-.24-.225-.438-.4-.466-.28-.053-.296.033-.23.75Zm-38.024-.366c0 .284.58.51.74.284.115-.183-.225-.553-.515-.553-.132 0-.225.115-.225.269Zm5.89-.028c-.191.168-.098.466.143.466.132 0 .241-.086.241-.197 0-.241-.224-.395-.383-.269Zm13.941 1.895c-.033 1.429-.115 1.963-.307 2.261-.307.452-.274.525.29.578.373.043.39 0 .433-.737.033-.423.116-.832.192-.904.143-.125.724.832.872 1.482.082.351.158.365 1.337.452 1.386.087 1.627.029 1.287-.298-.208-.198-.224-.496-.082-1.934.082-.934.16-1.853.176-2.05.032-.284-.05-.365-.39-.394l-.416-.044-.033 2.093c-.033 2.107-.131 2.444-.657 2.444-.274 0-.598-.539-.965-1.583-.159-.466-.142-.577.16-.962.19-.24.388-.678.432-.962.115-.765-.274-1.116-1.403-1.232l-.888-.086-.038 1.876Zm1.578-.582c0 .621-.34 1.073-.707.948-.224-.087-.257-.212-.159-.833.132-.933.357-1.231.658-.875.11.139.208.481.208.76Zm10.543-1.174c-1.578.101-1.561.087-1.43 1.03.082.591.05.904-.099 1.058-.159.168-.142.284.082.577.209.284.258.592.209 1.299l-.05.948.483-.043c.597-.072.657-.116.433-.342-.192-.226-.433-3.478-.29-3.902.142-.408.514-.394.646 0l.115.328.142-.328c.082-.168.258-.312.373-.312.274 0 .855 3.165.69 3.815-.082.409-.065.423.466.423.597 0 .707-.168.356-.495-.142-.116-.257-.722-.34-1.583-.049-.765-.142-1.554-.191-1.78-.099-.342-.066-.38.323-.38.29 0 .482.101.58.312.132.284.143.255.116-.168l-.033-.495-.888-.015c-.487.015-1.243.029-1.693.053Zm-6.312.313c-.565.409-.855 1.217-.855 2.362 0 1.371.465 2.319 1.161 2.319.39 0 .373-.125-.049-.51-.323-.298-.356-.496-.356-1.867 0-1.299.05-1.611.307-1.91.159-.211.4-.38.515-.38.099 0 .192-.072.192-.139.005-.226-.526-.159-.915.125Zm2.882 0c-.132.058-.175.255-.132.452.225.89.4 3.56.241 3.815-.191.342.132.481.757.351.29-.072.372-.139.257-.269-.224-.255-.34-1.511-.175-1.91a.63.63 0 0 0-.05-.635c-.098-.168-.175-.678-.175-1.116.017-.842-.159-1.011-.723-.688Zm-24.9.356c-.241.327-.192.794.099.794.24 0 .674-.693.564-.919-.131-.318-.373-.275-.663.125Zm23.097-.298c0 .028.142.298.307.606l.307.553.115-.38c.142-.525 0-.818-.4-.818-.181-.005-.329.01-.329.039Zm-21.974.947c-.131.183.225.592.417.481.082-.043.142-.197.142-.351.006-.288-.378-.37-.558-.13Zm5.267 1.41c-.275.394-.242.452.175.394.224-.028.372-.154.4-.365.066-.395-.302-.409-.575-.029Z"/><path d="M60.715 118.008c-.049.072.017.198.143.299.34.24.307.75-.082 1.173-.4.438-.4.525-.017.525.515 0 .822-.395.822-1.059 0-.341.082-.663.16-.707.098-.058.13-.154.081-.226-.126-.173-.997-.173-1.107-.005Z"/></g><defs><clipPath id="a"><path fill="#fff" d="M0 0h120v120H0z"/></clipPath></defs></svg>
