<svg xmlns="http://www.w3.org/2000/svg" width="417" height="61" fill="none"><path fill="#FE0000" fill-rule="evenodd" d="M31.697 21.721c9.16 11.523 16.929 20.781 17.265 20.574.909-.562 1.289-24.669.489-31.07-.771-6.173-2.396-8.454-6.022-8.454-1.336 0-2.429-.45-2.429-1 0-.604 4.186-1 10.559-1 10.002 0 12.962 1.046 6.576 2.323C53.511 4.019 53 7.185 53 34.92c0 13.668-.338 24.85-.75 24.849-.412-.001-9.3-10.651-19.75-23.666l-19-23.663-.271 20.193c-.174 13.007.112 20.907.805 22.201.591 1.105 2.4 2.274 4.02 2.598 1.62.324 2.946 1.017 2.946 1.541 0 1.052-19.927.726-20.584-.337-.219-.355 1.133-.933 3.005-1.284C8.479 56.403 9 53.751 9 28.936 9 8.201 8.919 7.314 6.826 5.085 5.63 3.813 3.856 2.771 2.885 2.771c-.972 0-2.045-.45-2.385-1-.391-.633 2.163-1 6.962-1h7.58l16.655 20.95ZM111 6.771c0 3.333-.444 6-1 6-.55 0-1-.65-1-1.444 0-.795-1.082-2.702-2.405-4.24-2.333-2.713-2.747-2.807-14-3.164L81 3.555v23.216h9.5c8.167 0 9.781-.281 11.5-2 1.1-1.1 2-2.9 2-4s.45-2 1-2c.6 0 1 4 1 10s-.4 10-1 10c-.55 0-1-.8-1-1.777 0-.978-.701-2.778-1.557-4-1.431-2.044-2.358-2.223-11.5-2.223H81v25h10.599c12.498 0 15.905-1.225 19.467-7 2.241-3.634 5.8-5.699 4.648-2.697-.275.716-1.287 4.108-2.249 7.537l-1.75 6.235-23.383-.175c-12.861-.096-23.624-.563-23.917-1.037-.293-.475.394-.863 1.526-.863 1.132 0 2.959-.9 4.059-2 1.884-1.884 1.999-3.323 1.986-24.75-.007-12.512-.291-23.785-.63-25.051-.405-1.512-1.607-2.499-3.507-2.879-7.968-1.594-1.834-2.32 19.592-2.32H111v6Zm41.03-4.9c16.803 3.604 18.178 23.536 1.925 27.912-2.175.586-3.955 1.292-3.955 1.569 0 .277 4.533 6.109 10.073 12.96 6.307 7.8 10.98 12.685 12.5 13.067 4.646 1.166 2.383 2.264-4.283 2.079l-6.709-.187-10.61-13.5c-8.306-10.569-11.192-13.569-13.29-13.816L135 31.638v11.067c0 9.733.241 11.307 2 13.066 1.1 1.1 2.927 2 4.059 2 1.132 0 1.814.397 1.514.882-.682 1.103-23.573 1.031-23.573-.074 0-.444.868-.808 1.929-.808 1.06 0 2.643-.715 3.517-1.588 1.381-1.382 1.553-4.86 1.321-26.75L125.5 4.271l-3.25-.957C120.462 2.788 119 2 119 1.564c0-1.201 27.174-.949 33.03.307Zm37.97-.1c0 .55-1.139 1-2.531 1-4.954 0-4.463 1.974 6.713 27 6.483 14.518 6.536 14.616 7.381 13.771.809-.809 12.117-28.97 13.539-33.718 1.345-4.487.172-7.053-3.224-7.053-1.033 0-1.878-.45-1.878-1 0-.588 3.5-1 8.5-1s8.5.412 8.5 1c0 .55-.605 1-1.345 1-2.697 0-4.696 3.972-14.595 29-10.145 25.652-11.559 28.836-12.42 27.971-.258-.259-5.029-10.596-10.602-22.971C173.748 5.044 173.21 4.04 169.862 2.873 168.288 2.324 167 1.627 167 1.323c0-.304 5.175-.552 11.5-.552 7 0 11.5.391 11.5 1Zm187.5 13v13.5l-75.868.256-75.868.257.502-2.257c1.094-4.922 8.223-24.301 9.197-25.001.57-.41 32.762-.635 71.537-.5l70.5.245v13.5ZM135.75 4.332c-.413.425-.75 6.097-.75 12.606v11.833h5.032c9.605 0 15.968-4.817 15.968-12.088 0-5.187-1.806-8.76-5.357-10.597-3.324-1.719-13.736-2.945-14.893-1.754ZM417 47.271v13.5H212.208l4.732-11.75c2.602-6.463 5.016-12.537 5.364-13.5.597-1.65 6.162-1.75 97.665-1.75H417v13.5Z" clip-rule="evenodd"/></svg>
