<svg xmlns="http://www.w3.org/2000/svg" width="32" height="32" fill="none"><g fill="#DC002F" fill-rule="evenodd" clip-path="url(#a)" clip-rule="evenodd"><path d="M2.953 20.007H.001c-.002 0 0-.207 0-.228-.001.12.815-.171.897-.235.326-.252.307-.689.307-1.055V12.75c0-.703-.602-.911-1.205-.911v-.228h3.012L6.92 16.5c-.046-.057 0-.348 0-.42 0-.332.003-.664.002-.997-.002-.627-.006-1.255.002-1.882.009-.676.013-1.235-.8-1.34-.02-.002-.423-.036-.423-.02v-.228h3.041v.228c0-.042-.626.042-.693.065-.525.178-.551.77-.55 1.227.003.774.02 1.549.02 2.324-.002 1.27.002 2.54.005 3.81 0 .048-.004.863-.001.863h-.176l-5.525-6.817v5.176c0 .759.31 1.291 1.131 1.291v.228Zm9.038 7.909a4.874 4.874 0 0 1-.002-.121c0-.59.004-1.179.002-1.768-.003-.972.002-1.943.004-2.914 0-.44.117-1.103-.13-1.482-.108-.168-.312-.24-.5-.28-.04-.009-.521-.06-.521-.039V21.1c.69 0 1.379.005 2.069 0 .85-.004 1.704-.019 2.554.014.834.032 1.63.165 2.187.846.593.725.706 1.788.099 2.537-.349.43-.848.814-1.386.976.083-.025.867 1.212.95 1.332.34.496.66 1.003.975 1.514.236.383.556.878 1.072.873.002.073.002.152.002.227h-2.572c-.633-.96-1.258-1.924-1.896-2.88-.25-.376-.518-.915-1.042-.915 0 .903-.08 1.842.018 2.74.051.48.262.761.761.813l.176.015h.191v.227h-4.159c0-.269.087-.216.335-.235.218-.017.453-.056.61-.22.248-.258.213-.699.203-1.048Zm1.864-6.36v3.597c.79 0 1.58-.021 2.038-.766.415-.678.458-1.665-.095-2.285-.322-.36-.83-.546-1.31-.546h-.633Z"/><path d="M31.643 8.532c-.032-.078-.053-.2-.113-.26-.175-.173-.233-.384-.467-.53-.156-.097-.345-.127-.433-.3-.18-.349-.013-.633-.431-.867-.14-.078-.328-.097-.416-.228-.09-.138-.042-.33-.145-.47-.183-.248-.527-.421-.748-.627-.178-.164-.174-.448-.344-.614-.22-.214-.66-.1-.938-.1-.033-.336-.514-.446-.776-.502-.294-.063-.402-.328-.672-.48-.272-.152-.553-.093-.85-.097-.536-.006-1.27-.129-1.345-.771.19-.08.238-.219.373-.35.12-.119.208-.127.262-.316.043-.151-.003-.306.024-.458.06-.335.31-.562.603-.714-.251-.54-.974-.236-1.416-.51-.185-.114-.337-.222-.582-.203-.243.02-.423.11-.677.092-.26-.018-.353-.156-.59-.211-.199-.048-.507.019-.685.122-.003.01.012.023.012.026-.34.299-.575.199-.92.012-.294-.159-.615-.172-.896-.003-.27.164-.501.303-.832.208-.315-.09-.594-.21-.9-.028-.132.078-.205.2-.342.236-.302.08-.67.019-.984.052a4.44 4.44 0 0 0-1.037.224c-.736.265-1.3.701-1.72 1.357-.879 1.372-.306 3.177-.683 4.683-.26 1.04-1.024 2.124-2.214 2.166-.828.03-1.48-.509-1.978-1.103A17.284 17.284 0 0 1 7.226 5.78c-.36-.6-.736-1.283-.879-1.971l-.044-.213-1.366 1.366 6.204 6.65H8.919v.228c0-.018.498.023.539.03.202.038.419.109.54.285.388.565.292 1.245.282 1.893-.013.888-.035 4.094-.165 5.068-.077.572-.692.674-1.192.665-.002.023-.01.226-.004.226h6.934l.397-2.748h-.235c-.028 0-.31.723-.342.787-.189.393-.463.72-.837.959-.766.49-2.729.797-2.729-.577v-2.52c.25.017.497.037.736.12.797.272 1.063 1.037 1.115 1.793h.235v-2.938l5.8 6.217h-1.436c0 .075-.002.153.01.225.834-.012.965 1.045 1.227 1.626.577 1.28 1.039 2.622 1.581 3.918.383.912.747 1.832 1.12 2.748h.264l1.623-3.814L30.164 32v-.106c.007-.28-.024-.56-.045-.837-.033-.469.085-.931.074-1.399-.012-.468-.248-.812-.361-1.25-.059-.229.016-.465.09-.682.146-.422.061-.796.009-1.23-.054-.438.381-.688.313-1.143-.033-.224-.165-.36-.148-.588.017-.217.054-.396-.014-.613-.064-.207-.178-.419-.183-.638-.006-.267.089-.489.002-.758-.1-.31-.146-.492-.086-.813.075-.397.174-.927-.136-1.252-.18-.19-.297-.205-.337-.485-.03-.212-.03-.428-.045-.642-.015-.219-.045-.43-.15-.625-.09-.17-.257-.309-.337-.48-.16-.343.041-.741-.073-1.095-.058-.177-.177-.326-.237-.506-.063-.189-.094-.385-.187-.564-.145-.282-.423-.344-.373-.709.037-.277.16-.465-.04-.714-.175-.216-.41-.303-.517-.575-.11-.28-.138-.452-.404-.631-.209-.141-.427-.304-.683-.335-.278-.034-.555.068-.736-.196-.15-.218-.123-.451-.424-.536-.242-.069-.54.06-.741-.128-.161-.15-.242-.36-.393-.519-.087-.091-.297-.216-.098-.329.221-.124.602.261.825.32.299.077.668.125.976.147.652.045 1.164-.455 1.809-.44.293.006.623.123.906.006.279-.115.389-.49.693-.543.333-.058.58.194.849-.135.199-.243.224-.549.492-.747.298-.22.656-.173.969-.328.263-.13.403-.48.577-.703a4.27 4.27 0 0 1-.357-.667Zm-19.536 6.875v-.386c-.001-.52-.005-1.04 0-1.56.001-.218-.034-.533.017-.795l1.657 1.776c-.297.68-.963.916-1.674.965Zm11.883 9.976-.6 1.41c.036-.083-.18-.452-.213-.532-.308-.786-.623-1.569-.944-2.35-.1-.24-.197-.482-.292-.724l2.05 2.196Z"/></g><defs><clipPath id="a"><path fill="#fff" d="M0 0h32v32H0z"/></clipPath></defs></svg>
